<mxfile host="app.diagrams.net" modified="2022-04-18T19:53:44.031Z" agent="5.0 (Windows NT 10.0; Win64; x64) AppleWebKit/537.36 (KHTML, like Gecko) Chrome/100.0.4896.127 Safari/537.36 Edg/100.0.1185.44" etag="HeybuExRzJVEuMNbqZiZ" version="17.4.5" type="github">
  <diagram id="WSA8nmiMOzIteL66akkf" name="Page-1">
    <mxGraphModel dx="1038" dy="571" grid="1" gridSize="10" guides="1" tooltips="1" connect="1" arrows="1" fold="1" page="1" pageScale="1" pageWidth="827" pageHeight="1169" math="0" shadow="0">
      <root>
        <mxCell id="0" />
        <mxCell id="1" parent="0" />
        <mxCell id="BhO8uMvEsnN2Rg311lrC-3" value="" style="html=1;points=[];perimeter=orthogonalPerimeter;" vertex="1" parent="1">
          <mxGeometry x="260" y="210" width="10" height="80" as="geometry" />
        </mxCell>
        <mxCell id="BhO8uMvEsnN2Rg311lrC-4" value="dispatch" style="html=1;verticalAlign=bottom;startArrow=oval;endArrow=block;startSize=8;rounded=0;" edge="1" target="BhO8uMvEsnN2Rg311lrC-3" parent="1">
          <mxGeometry relative="1" as="geometry">
            <mxPoint x="200" y="210" as="sourcePoint" />
          </mxGeometry>
        </mxCell>
        <mxCell id="BhO8uMvEsnN2Rg311lrC-5" value="" style="html=1;points=[];perimeter=orthogonalPerimeter;" vertex="1" parent="1">
          <mxGeometry x="420" y="260" width="10" height="80" as="geometry" />
        </mxCell>
        <mxCell id="BhO8uMvEsnN2Rg311lrC-6" value="dispatch" style="html=1;verticalAlign=bottom;endArrow=block;entryX=0;entryY=0;rounded=0;" edge="1" target="BhO8uMvEsnN2Rg311lrC-5" parent="1">
          <mxGeometry relative="1" as="geometry">
            <mxPoint x="350" y="260" as="sourcePoint" />
          </mxGeometry>
        </mxCell>
        <mxCell id="BhO8uMvEsnN2Rg311lrC-7" value="return" style="html=1;verticalAlign=bottom;endArrow=open;dashed=1;endSize=8;exitX=0;exitY=0.95;rounded=0;" edge="1" source="BhO8uMvEsnN2Rg311lrC-5" parent="1">
          <mxGeometry relative="1" as="geometry">
            <mxPoint x="350" y="336" as="targetPoint" />
          </mxGeometry>
        </mxCell>
        <mxCell id="BhO8uMvEsnN2Rg311lrC-8" value="" style="html=1;points=[];perimeter=orthogonalPerimeter;" vertex="1" parent="1">
          <mxGeometry x="575" y="250" width="10" height="40" as="geometry" />
        </mxCell>
        <mxCell id="BhO8uMvEsnN2Rg311lrC-9" value="self call" style="edgeStyle=orthogonalEdgeStyle;html=1;align=left;spacingLeft=2;endArrow=block;rounded=0;entryX=1;entryY=0;" edge="1" target="BhO8uMvEsnN2Rg311lrC-8" parent="1">
          <mxGeometry relative="1" as="geometry">
            <mxPoint x="580" y="230" as="sourcePoint" />
            <Array as="points">
              <mxPoint x="610" y="230" />
            </Array>
          </mxGeometry>
        </mxCell>
        <mxCell id="BhO8uMvEsnN2Rg311lrC-10" value="" style="shape=umlDestroy;whiteSpace=wrap;html=1;strokeWidth=3;" vertex="1" parent="1">
          <mxGeometry x="310" y="500" width="30" height="30" as="geometry" />
        </mxCell>
        <mxCell id="BhO8uMvEsnN2Rg311lrC-11" value=":Object" style="shape=umlLifeline;perimeter=lifelinePerimeter;whiteSpace=wrap;html=1;container=1;collapsible=0;recursiveResize=0;outlineConnect=0;" vertex="1" parent="1">
          <mxGeometry x="290" y="50" width="100" height="300" as="geometry" />
        </mxCell>
      </root>
    </mxGraphModel>
  </diagram>
</mxfile>
